<svg xmlns="http://www.w3.org/2000/svg" width="24" height="24" viewBox="0 0 24 24"><path fill-rule="evenodd" stroke="#000" d="M380.751 97c-.32.825-.841 3.675-1.158 6.332-1.204 10.084-5.685 15.064-14.56 16.182-2.493.314-5.883.955-7.533 1.426-2.93.836-2.905.858 1.068.958 13.834.347 21.407 7.541 21.426 20.352.009 5.958 1.659 4.349 2.353-2.296.679-6.494 1.717-9.153 4.969-12.722 2.412-2.648 10.332-5.232 16.032-5.232 5.59 0 3.997-.962-3.301-1.993-12.106-1.712-16.441-6.103-17.932-18.166-.431-3.487-1.045-5.666-1.364-4.841M196.79 151.829c-39.141 13.124-56.169 19.273-57.253 20.675-1.359 1.757-1.506 8.869-1.226 59.496.353 63.907.255 62.875 7.708 81.262 15.275 37.683 51.02 69.885 98.519 88.753 9.628 3.825 13.299 3.756 23.721-.446 48.952-19.735 85.968-54.426 99.188-92.959 5.742-16.74 5.814-17.632 6.267-77.64.415-55.013.4-55.556-1.657-58.17-1.76-2.238-10.554-5.466-57.817-21.22-30.657-10.219-57.09-18.546-58.74-18.505s-28.069 8.48-58.71 18.754m7.415 16.495L155.911 184.5l.341 51c.332 49.551.407 51.227 2.622 59 6.739 23.641 19.666 43.002 39.916 59.784 14.485 12.003 31.262 22.098 48.505 29.185l8.794 3.615 8.706-3.719c49.407-21.109 81.445-55.137 89.318-94.865 1.067-5.387 1.387-18.17 1.387-55.471v-48.472L307 168.321c-26.675-8.931-49.85-16.222-51.5-16.205s-24.733 7.312-51.295 16.208"/></svg>