<svg xmlns="http://www.w3.org/2000/svg" width="24" height="24" viewBox="0 0 24 24"><path fill-rule="evenodd" stroke="#000" d="M204.53 133.971c-1.634 1.077-4.405 3.662-6.158 5.744l-3.188 3.785-2.385-2.23c-6.279-5.87-12.671-5.072-19.968 2.491-9.089 9.419-27.907 42.465-31.906 56.026l-1.264 4.288-3.581-3.427c-7.51-7.189-14.783-8.655-19.34-3.898-4.985 5.205-5.674 8.52-5.476 26.369.184 16.68-.7 24.558-4.357 38.819-3.62 14.121-2.249 22.3 7.05 42.062 8.209 17.447 9.44 22.223 8.75 33.965-.333 5.665-1.641 13.391-3.224 19.035-8.856 31.587-8.938 31.974-7.128 33.784 2.964 2.964 4.918.353 7.777-10.392 1.447-5.441 3.768-13.737 5.158-18.436 1.389-4.699 2.843-10.661 3.231-13.25.783-5.217 1.924-6.055 2.907-2.135.355 1.414 1.192 2.392 1.859 2.173 2.263-.743 1.91-6.633-.744-12.431-1.422-3.107-3.515-9.286-4.649-13.731-1.135-4.445-5.257-14.797-9.161-23.003-8.624-18.133-9.028-20.84-5.404-36.221 3.872-16.432 4.846-25.431 4.493-41.523-.315-14.354-.27-14.72 2.102-17.25 1.334-1.422 2.841-2.585 3.349-2.585 1.707 0 6.988 6.459 8.875 10.853 3.461 8.059 6.67 23.552 7.696 37.147 1.109 14.701 3.507 24.164 7.666 30.25 3.01 4.406 6.06 5.156 5.079 1.25-.881-3.513 1.467-3.267 5.889.615 3.672 3.224 12.702 16.212 16.419 23.616 2.642 5.263 6.087 19.366 6.096 24.96.004 2.305.433 4.454.953 4.776 1.183.731 3.041-5.748 3.048-10.629.017-10.989-6.101-30.129-12.353-38.646-4.331-5.9-12.818-12.667-18.228-14.535l-3.913-1.35-1.694-15.404c-.932-8.471-2.436-19.678-3.344-24.903l-1.649-9.5 3.168-12.487c1.743-6.868 4.177-14.518 5.409-17 4.265-8.589 22.842-38.526 25.916-41.763 3.677-3.872 8.015-4.387 9.744-1.157 1.56 2.915.751 5.503-6.535 20.907-7.324 15.486-11.683 30.538-13.984 48.288-1.403 10.829-1.394 11.991.112 14.29 1.873 2.859 4.961 4.785 6.322 3.943.546-.337.379-2.382-.407-4.995-1.562-5.189-.919-8.964 4.809-28.233 4.788-16.108 6.42-20.108 15.278-37.44 7.301-14.285 12.474-21.776 16.538-23.951 1.622-.868 2.465-.642 4.411 1.187 3.043 2.858 3.017 4.49-.185 11.632-15.122 33.728-20.46 49.687-23.441 70.08-.667 4.566-1.878 8.966-2.691 9.78-3.676 3.675 4.367 15.611 8.71 12.927.641-.396.463-1.67-.491-3.515-.823-1.592-1.496-4.217-1.496-5.835 0-6.505 9.422-38.413 15.389-52.114 1.807-4.149 4.529-10.99 6.049-15.202 3.43-9.507 7.563-14.853 10.235-13.24 3.212 1.939 2.837 8.856-1.146 21.177-6.99 21.625-14.51 55.286-14.542 65.102-.017 4.991-.65 6.543-2.985 7.315-2.415.798 6.117 8.804 9.382 8.804 2.99 0 3.354-1.144.99-3.106-2.372-1.969-1.32-20.683 2.13-37.894 2.334-11.641 3.403-14.774 7.76-22.75 2.779-5.088 5.501-9.25 6.048-9.25 1.448 0 .163 20.759-2.321 37.5-1.143 7.7-2.307 21.65-2.586 31s-.973 19.025-1.541 21.5-2.527 13.208-4.352 23.852c-3.095 18.048-3.655 20.036-8.309 29.5-3.093 6.29-8.253 14.314-13.571 21.104-5.074 6.479-9.576 13.426-11.016 17-3.274 8.125-8.614 25.789-8.614 28.495 0 3.233 1.822 6.049 3.913 6.049 2.645 0 3.873-1.904 5.192-8.053 2.553-11.907 9.33-26.675 18.668-40.686 8.067-12.104 10.392-16.309 15.069-27.264 3.485-8.164 4.358-11.756 6.197-25.5A25185 25185 0 0 1 234.057 278c.483-3.575 1.348-14.6 1.923-24.5.663-11.405 2.359-25.875 4.63-39.495 4.246-25.465 4.349-34.291.449-38.442-1.324-1.41-3.203-2.563-4.175-2.563-1.571 0-1.705-.75-1.205-6.75.716-8.58-1.044-13.14-6.453-16.719-2.796-1.85-4.275-3.75-5.123-6.583-.656-2.189-2.57-5.549-4.252-7.465-2.671-3.042-3.647-3.482-7.705-3.476-2.925.004-5.746.731-7.616 1.964m76.69.824c-1.646 1.537-3.786 5.024-4.757 7.75-1.143 3.209-2.828 5.66-4.781 6.955-5.803 3.849-7.193 6.86-7.08 15.337.101 7.623.083 7.677-2.996 9.166-6.868 3.32-7.088 9.005-1.606 41.374 2.338 13.806 4 26.901 4 31.524 0 8.05 1.475 23.152 5.01 51.295 2.796 22.255 8.733 37.193 22.667 57.03 6.606 9.405 13.433 23.675 16.158 33.774 2.963 10.984 3.884 13 5.94 13 5.427 0 5.458-5.317.13-22.063-4.472-14.054-7.607-19.962-16.305-30.727-7.052-8.728-13.925-20.634-16.544-28.659-3.683-11.283-8.311-41.839-9.095-60.051-.403-9.35-1.705-24.2-2.894-33-3.844-28.457-4.154-31.908-3.354-37.364l.787-5.363 4.769 8.567c3.947 7.091 5.201 10.684 7.28 20.863 1.382 6.764 3.181 18.293 3.997 25.621 1.468 13.167 1.46 13.359-.64 16.307-1.168 1.641-1.871 3.237-1.562 3.547 1.022 1.022 5.454-.637 8.459-3.166 3.782-3.182 4.478-5.827 2.073-7.886-1.408-1.205-1.876-2.964-1.876-7.043 0-8.964-7.994-45.44-13.852-63.204-3.699-11.216-4.525-16.256-3.226-19.674 2.345-6.168 6.412-2.239 12.076 11.664 17.104 41.988 21.984 60.056 19.888 73.631-.3 1.944.09 2.568 1.756 2.805 3.901.557 9.526-10.209 6.773-12.962-.769-.768-2.289-6.335-3.379-12.37-3.339-18.497-9.107-35.512-21.347-62.973-5.132-11.514-5.3-12.684-2.32-16.109 2.398-2.758 2.64-2.822 5.239-1.391 1.499.825 4.461 4.045 6.582 7.155 5.572 8.168 19.359 35.452 21.158 41.87.844 3.011 3.362 11.929 5.594 19.817 4.404 15.563 4.764 18.641 2.526 21.599-.807 1.068-1.468 2.305-1.468 2.75 0 1.573 3.766.781 6.495-1.366 2.762-2.172 2.765-2.187 2.082-11.223-1.122-14.866-7.342-36.895-15.062-53.347-7.011-14.94-8.079-19.638-4.98-21.904 2.419-1.769 2.714-1.73 5.919.792 3.095 2.434 17.202 23.659 25.162 37.857 4.291 7.654 5.941 12.026 8.491 22.5 2.959 12.15 3.092 13.458 2.037 20-1.151 7.134-5.144 38.967-5.144 41.009 0 .617-2.426 2.128-5.39 3.357-10.692 4.432-21.856 18.778-26.053 33.48-2.649 9.28-3.803 22.101-2.408 26.757 1.655 5.524 2.925 3.636 3.884-5.77 1.221-11.98 4.489-20.48 12.432-32.328 6.493-9.686 11.863-15.005 15.151-15.005.744 0 1.078.634.764 1.452-.767 2 .384 3.576 2.125 2.908 2.023-.777 6.223-10.052 7.945-17.548.798-3.472 1.925-11.841 2.504-18.599 1.101-12.833 1.741-16.395 4.908-27.321 2.302-7.939 3.57-10.521 6.947-14.142 3.075-3.296 5.227-3.474 7.786-.641 1.708 1.891 1.909 3.825 1.947 18.75.047 18.383 1.453 31.021 4.606 41.401 3.385 11.145 2.527 16.685-4.99 32.236-3.453 7.143-7.794 17.941-9.647 23.996s-4.326 13.651-5.494 16.881c-2.157 5.964-2.339 9.7-.502 10.304.559.183 1.731-.846 2.606-2.288l1.591-2.621.7 5.279c.385 2.904 2.096 9.593 3.802 14.866s4.043 13.367 5.194 17.988c2.254 9.049 4.184 11.512 7.115 9.08 2.297-1.907 1.547-6.752-3.439-22.203-9.778-30.305-9.503-40.203 1.772-63.778 9.956-20.815 10.874-27.46 6.464-46.767-2.368-10.365-2.712-14.147-2.943-32.442-.17-13.421-.677-21.515-1.44-23-2.448-4.765-7.216-8.792-10.383-8.769-4.461.032-10.845 3.257-13.721 6.932l-2.507 3.204-2.194-6.016c-6.097-16.722-24.911-47.997-33.806-56.196-3.647-3.361-4.94-3.946-8.727-3.946-3.283 0-5.223.654-7.417 2.5-1.634 1.375-3.244 2.5-3.579 2.5s-2.261-1.829-4.28-4.065c-6.923-7.662-14.633-9.25-20.103-4.14"/></svg>