<svg xmlns="http://www.w3.org/2000/svg" width="24" height="24" viewBox="0 0 512 512"><path fill-rule="evenodd" stroke="#000" d="M226.5 157.113c-26.139 3.786-57.524 16.592-85 34.683-21.798 14.352-44.049 33.176-58.615 49.587-10.489 11.817-10.489 12.44-.029 24.248 23.853 26.93 61.542 54.636 94.528 69.488 11.711 5.273 26.895 10.341 39.302 13.116 8.514 1.905 12.86 2.201 32.814 2.231 25.099.037 30.707-.701 49.836-6.563 40.441-12.393 87.696-43.875 118.822-79.159 9.256-10.493 9.255-11.999-.009-22.488-32.917-37.266-84.721-70.715-125.649-81.129-15.931-4.054-25.163-5.131-42.881-5.005-9.415.067-19.819.513-23.119.991M189 185.288c-21.533 9.043-41.14 20.943-61.989 37.621C115.769 231.902 95 251.748 95 253.496c0 1.685 21.595 22.478 32 30.812 12.336 9.88 30.235 21.818 42.136 28.103C179.424 317.844 195.324 325 197.107 325c.512 0-2.277-3.026-6.198-6.725-17.57-16.575-26.558-36.043-27.624-59.841-.874-19.491 3.276-35.066 13.654-51.244 4.635-7.226 16.625-19.923 23.561-24.952 4.589-3.327 2.131-2.675-11.5 3.05m110.5-3.006c6.43 4.652 21.326 20.517 24.616 26.218 9.376 16.244 12.344 27.306 12.344 46 0 16.179-1.461 23.213-7.549 36.344-5.145 11.094-11.16 19.323-20.505 28.051l-7.715 7.204 6.905-2.587c27.404-10.268 62.21-33.636 87.984-59.068l10.56-10.42-4.058-4.812c-4.37-5.182-20.249-19.636-31.582-28.747-17.554-14.113-43.769-29.398-63.464-37.004-10.316-3.984-11.716-4.203-7.536-1.179m-67.127 3.697c-24.585 6.445-44.135 26.132-50.443 50.795-2.615 10.222-2.597 25.299.042 35.617C189.821 303.08 218.046 325 249.713 325c42.395 0 75.945-37.679 70.294-78.946-3.383-24.711-17.391-44.218-39.853-55.5-13.007-6.533-33.009-8.448-47.781-4.575m12.728 44.107c-14.751 2.887-22.314 19.833-15.115 33.867 3.685 7.184 11.922 12.003 20.514 12.003 8.781 0 16.731-4.757 20.818-12.456 2.75-5.183 2.965-16.448.404-21.203-5.197-9.65-15.518-14.385-26.621-12.211"/></svg>