<svg xmlns="http://www.w3.org/2000/svg" width="24" height="24" viewBox="0 0 24 24"><path fill-rule="evenodd" stroke="#000" d="M380.751 97c-.32.825-.841 3.675-1.158 6.332-1.204 10.084-5.685 15.064-14.56 16.182-2.493.314-5.883.955-7.533 1.426-2.93.836-2.905.858 1.068.958 13.834.347 21.407 7.541 21.426 20.352.009 5.958 1.659 4.349 2.353-2.296.679-6.494 1.717-9.153 4.969-12.722 2.412-2.648 10.332-5.232 16.032-5.232 5.59 0 3.997-.962-3.301-1.993-12.106-1.712-16.441-6.103-17.932-18.166-.431-3.487-1.045-5.666-1.364-4.841M99 144.744c-1.997 1.002-4.251 3.259-5.248 5.256-1.636 3.275-1.749 11.343-1.75 125.282-.002 132.5-.27 126.281 5.612 130.264 2.81 1.903 5.552 1.961 104.386 2.213 95.187.242 101.713.149 104.929-1.5 1.886-.968 4.361-3.029 5.5-4.582 2.046-2.789 2.074-3.734 2.339-79.467l.269-76.644 19.795-20.033C355.422 204.696 357 202.47 357 194.26c0-4.733-2.791-11.443-6.293-15.128-8.697-9.155-22.098-9.443-32.457-.698l-3.25 2.744v-13.555c0-14.863-.949-18.462-5.832-22.123-2.622-1.965-4.429-2.004-104.668-2.256-95.581-.24-102.22-.146-105.5 1.5m3.463 9.501c-.263.69-.362 55.705-.22 122.255l.257 121h202l.256-71 .256-71-42.256 42.13-42.256 42.13-21.5 8.032c-25.178 9.407-25.664 9.561-26.382 8.399-.781-1.263 16.084-45.228 18.286-47.67 1.003-1.111 2.222-2.77 2.709-3.685.488-.916 25.759-26.666 56.159-57.222l55.271-55.557-.271-19.278-.272-19.279-100.78-.255c-80.095-.202-100.877.003-101.257 1"/></svg>