<svg xmlns="http://www.w3.org/2000/svg" width="24" height="24" viewBox="0 0 512 512"><path fill-rule="evenodd" stroke="#000" d="M236.334 89.957c-11.55 5.835-17.419 14.796-18.126 27.676-.536 9.757 1.224 16.026 6.404 22.809 3.759 4.924 3.726 4.989-3.029 5.937-5.796.813-13.907 5.143-19.115 10.204-5.41 5.257-10.276 14.999-11.141 22.302-.578 4.885-.939 5.413-6.887 10.087-19.628 15.426-33.591 36.755-39.602 60.493l-2.097 8.282-6.165.495c-11.749.943-22.914 8.782-27.83 19.538-1.683 3.684-2.166 6.695-2.201 13.72-.04 7.957.282 9.637 2.777 14.5 1.552 3.025 3.953 6.69 5.336 8.144l2.514 2.645-5.008.688c-12.251 1.685-23.885 10.492-29.49 22.322L79.5 346.5v47l59.436.258c46.887.204 59.605-.008 60.235-1 .439-.692.805-5.244.814-10.115.011-6.707.318-8.724 1.265-8.309 19.702 8.64 30.616 11.068 49.75 11.068s30.048-2.428 49.75-11.068c.947-.415 1.254 1.602 1.265 8.309.009 4.871.375 9.423.814 10.115.63.992 13.348 1.204 60.235 1l59.436-.258v-47l-3.174-6.701c-5.576-11.769-17.24-20.637-29.333-22.3l-4.851-.667 3.322-4.353c7.618-9.98 9.38-23.881 4.385-34.599-5.402-11.591-15.331-18.667-27.571-19.65-5.821-.467-6.352-.708-6.861-3.118-1.328-6.29-5.867-20.133-8.524-26.001-6.406-14.145-20.414-31.246-33.996-41.502-4.181-3.157-4.659-3.952-5.219-8.677-.87-7.346-5.724-17.08-11.146-22.349-5.208-5.061-13.319-9.391-19.115-10.204-6.764-.949-6.839-1.055-3.638-5.13 4.231-5.383 5.892-9.016 7.094-15.519 2.6-14.067-4.268-28.252-17.069-35.255-4.578-2.505-6.604-2.952-14.804-3.267-9.005-.347-9.821-.204-15.666 2.749m9.166 4.978c-4.986 1.214-8.893 3.683-13.17 8.322-9.491 10.298-8.937 25.32 1.283 34.74 5.838 5.381 9.899 7.003 17.539 7.003 7.637 0 13.258-2.498 18.382-8.169 4.897-5.42 6.466-9.542 6.466-16.983 0-7.72-2.47-13.183-8.455-18.7-6.208-5.722-14.482-8.054-22.045-6.213m-25.736 60.033c-7.692 2.393-16.568 11.073-19.189 18.766-1.208 3.545-1.575 8.893-1.575 22.944V215h15v-8.566c0-9.158 1.01-12.434 3.835-12.434 3.406 0 4.165 2.131 4.165 11.7v9.3h58v-9.3c0-9.569.759-11.7 4.165-11.7 2.825 0 3.835 3.276 3.835 12.434V215h15v-18.322c0-21.149-.849-24.953-7.174-32.138-2.213-2.515-6.117-5.802-8.675-7.306L282.5 154.5l-30-.191c-16.5-.106-31.231.191-32.736.659m-37.562 46.551c-15.31 14.175-27.021 35.008-30.699 54.612-.658 3.511-.563 3.644 4.757 6.647 6.442 3.635 10.131 7.75 13.649 15.222 2.118 4.499 2.587 6.957 2.575 13.5-.015 8.862-2.001 14.577-7.458 21.467l-3.015 3.807 4.744.661c5.362.746 15.412 5.377 19.408 8.943 8.509 7.593 12.536 16.39 13.648 29.815l.689 8.307 7.472 3.7c9.322 4.617 19.547 7.413 32.778 8.965 17.443 2.046 38.042-1.42 53.278-8.965l7.472-3.7.243-5c.396-8.139 2.282-16.616 4.803-21.591 4.983-9.833 17.733-18.949 28.62-20.462l4.667-.649-3.31-4.335c-4.982-6.528-7.023-12.771-7.023-21.485 0-6.486.454-8.444 3.292-14.208 3.412-6.931 8.67-12.338 14.847-15.269 3.224-1.53 3.389-1.846 2.767-5.314-2.434-13.57-9.113-28.577-18.125-40.72-5.495-7.404-18.514-20.467-20.397-20.467-.455 0-.953 6.188-1.106 13.75l-.278 13.75h-119l-.278-13.75c-.153-7.562-.661-13.75-1.128-13.75-.468 0-4.019 2.934-7.892 6.519m97.09 40.181c-5.277 1.023-19.961 21.116-30.415 41.621-3.335 6.541-6.384 11.507-6.775 11.036-.392-.471-1.97-2.573-3.507-4.671-1.536-2.097-4.285-4.524-6.107-5.393-3.095-1.476-3.532-1.452-6.647.368-1.834 1.071-3.478 2.694-3.654 3.607s1.848 4.279 4.497 7.479 5.941 7.503 7.316 9.561c2.435 3.645 2.643 3.735 8 3.467 6.275-.314 4.853 1.551 14.316-18.775 6.153-13.216 18.747-32.43 27.694-42.25l6.149-6.75-4.329.136c-2.382.075-5.324.329-6.538.564m-148.539 25.817c-5.541 2.035-10.507 6.208-13.553 11.389-2.331 3.966-2.698 5.688-2.686 12.594.019 11.072 3.953 17.536 13.852 22.759 5.739 3.029 16.501 3.052 22.134.049 9.191-4.9 13.949-12.683 13.944-22.808-.004-8.494-2.272-13.418-8.843-19.202-6.946-6.114-16.311-7.916-24.848-4.781m223.462-.26c-4.474 1.433-11.829 8.096-14.477 13.115-2.866 5.432-3.045 16.488-.35 21.628 2.56 4.881 7.392 9.792 12.112 12.308 5.63 3.002 16.395 2.979 22.128-.046 15.74-8.306 19.092-28.384 6.793-40.683-6.767-6.767-17.065-9.251-26.206-6.322M109.5 326.369c-9.304 3.011-15.808 8.667-19.701 17.131-2.1 4.567-2.327 6.673-2.626 24.293l-.327 19.294 7.827-.294 7.827-.293.286-9.734c.241-8.188.573-9.888 2.095-10.703 1.285-.687 2.435-.53 3.964.541 1.948 1.364 2.155 2.417 2.155 10.953V387h57v-9.429c0-7.238.365-9.793 1.571-11 1.86-1.859 1.993-1.875 4.495-.536 1.713.917 1.934 2.172 1.934 11V387h16.184l-.342-19.25c-.332-18.691-.423-19.414-3.122-24.911-3.201-6.518-8.963-12.134-15.598-15.202-4.325-2-6.39-2.151-32.122-2.349-20.276-.157-28.551.127-31.5 1.081m221.832.452c-6.332 2.225-11.524 6.081-15.41 11.446-4.917 6.787-5.922 12.119-5.922 31.415V387h16v-9.965c0-8.828.221-10.083 1.934-11 2.502-1.339 2.635-1.323 4.495.536 1.206 1.207 1.571 3.762 1.571 11V387h57v-9c0-7.701.292-9.292 2.023-11.023 1.59-1.59 2.438-1.801 3.964-.984 1.683.901 1.979 2.33 2.227 10.773l.286 9.734 7.827.293 7.827.294-.327-19.294c-.299-17.615-.527-19.728-2.625-24.293-3.004-6.536-9.246-12.814-15.603-15.692-4.878-2.208-6.292-2.319-32.599-2.555-24.408-.219-28.081-.043-32.668 1.568"/></svg>