<svg xmlns="http://www.w3.org/2000/svg" width="24" height="24" viewBox="0 0 512 512"><path fill-rule="evenodd" stroke="#000" d="M380.751 97c-.32.825-.841 3.675-1.158 6.332-1.204 10.084-5.685 15.064-14.56 16.182-2.493.314-5.883.955-7.533 1.426-2.93.836-2.905.858 1.068.958 13.834.347 21.407 7.541 21.426 20.352.009 5.958 1.659 4.349 2.353-2.296.679-6.494 1.717-9.153 4.969-12.722 2.412-2.648 10.332-5.232 16.032-5.232 5.59 0 3.997-.962-3.301-1.993-12.106-1.712-16.441-6.103-17.932-18.166-.431-3.487-1.045-5.666-1.364-4.841m-202.05 60.945c-37.289 16.958-68.677 31.628-69.75 32.599-1.902 1.721-1.951 3.662-1.951 77 0 70.177.118 75.377 1.75 77.356 1.002 1.215 29.522 14.733 66.75 31.639 35.75 16.234 66.418 30.179 68.151 30.989s3.49 1.472 3.905 1.472c1.89 0 136.201-61.56 138.194-63.339l2.25-2.01v-75.634c0-58.999-.275-75.982-1.25-77.214-1.166-1.474-137.639-63.869-139.431-63.748-.45.031-31.328 13.931-68.618 30.89m10.589 9.92c-32.015 14.639-57.89 26.934-57.5 27.323s26.55 12.463 58.132 26.83c56.258 25.593 57.488 26.096 60.69 24.802 8.5-3.433 113.335-51.385 113.36-51.851.015-.292-25.51-12.175-56.722-26.408s-57.425-26.2-58.25-26.594c-.951-.455-22.786 9.016-59.71 25.898m3.98 14.618c-6.459 2.807-9.282 12.302-5.542 18.634 1.734 2.936 8.403 6.883 11.628 6.883 3.282 0 9.61-4.033 11.223-7.154 5.967-11.538-5.362-23.557-17.309-18.363m48.034.473c-4.47 2.726-6.637 6.475-6.637 11.484 0 5.426 2.869 9.596 8.283 12.037 3.415 1.54 4.673 1.653 7.85.701 5.466-1.638 9.331-6.081 9.875-11.352 1.119-10.84-10.28-18.413-19.371-12.87m49.507-.661c-6.941 3.109-9.781 12.536-5.636 18.705 5.122 7.624 13.751 8.765 20.211 2.672 4.489-4.233 5.51-9.178 2.967-14.365-3.422-6.98-10.922-9.978-17.542-7.012m-169.568 89.19.257 65.704 59 26.863c32.45 14.774 59.338 26.882 59.75 26.905.412.024.75-29.379.75-65.339v-65.382l-58.75-26.728c-32.312-14.7-59.316-26.953-60.007-27.228-1.004-.399-1.206 12.76-1 65.205m192.007-38.224L254 260.32v65.34c0 35.937.289 65.34.642 65.34s27.578-12.239 60.5-27.198L375 336.605v-65.303c0-51.629-.262-65.281-1.25-65.201-.687.055-27.913 12.277-60.5 27.16m32.006 1.384c-6.232 3.072-9.157 12.04-5.977 18.325 1.865 3.684 7.443 7.03 11.721 7.03s9.856-3.346 11.721-7.03c3.22-6.363.217-15.348-6.138-18.364-4.239-2.011-7.189-2.001-11.327.039m-201.836 9.241c-3.509 2.139-6.42 7.521-6.42 11.867 0 6.931 8.674 14.094 15.515 12.81 4.759-.893 10.143-6.224 11.023-10.914.919-4.897-1.852-11.259-6.006-13.793-3.897-2.376-10.189-2.363-14.112.03m162.059 10.435C296.842 262.958 302.428 277 314.5 277s17.658-14.042 9.021-22.679c-2.985-2.985-3.899-3.321-9.021-3.321s-6.036.336-9.021 3.321m-100.145 13.743c-9.931 4.915-9.665 18.69.446 23.163 5.362 2.372 9.857 1.791 14.161-1.831 7.611-6.404 5.263-18.723-4.256-22.329-3.973-1.506-5.615-1.348-10.351.997m65.965 1.896c-5.791 3.53-8.048 11.758-4.897 17.85 1.585 3.065 8.239 7.19 11.598 7.19 3.302 0 9.445-3.791 11.34-6.999.913-1.545 1.658-4.54 1.656-6.655-.01-10.287-11.042-16.664-19.697-11.386M345.5 299.9c-4.309 1.899-6.818 5.886-7.29 11.587-.442 5.329-.331 5.627 3.549 9.507 3.654 3.654 4.465 4.006 9.241 4.006s5.587-.352 9.241-4.006c3.89-3.89 3.992-4.166 3.544-9.568-.626-7.557-4.409-11.542-11.442-12.055-2.664-.194-5.743.044-6.843.529m-202.08 4.986c-3.509 2.139-6.42 7.521-6.42 11.867 0 6.931 8.674 14.094 15.515 12.81 4.759-.893 10.143-6.224 11.023-10.914.919-4.897-1.852-11.259-6.006-13.793-3.897-2.376-10.189-2.363-14.112.03M310 316.651c-2.588 1.032-6.805 5.464-8.042 8.45-2.615 6.313 1.915 14.882 8.987 17.001 7.286 2.183 15.17-2.865 16.63-10.648 1.33-7.092-4.403-14.432-11.749-15.042-2.379-.198-5.001-.09-5.826.239m-104.666 12.363c-9.54 4.836-9.678 18.219-.236 23.036 4.837 2.468 8.544 2.466 12.598-.006 4.49-2.738 6.637-6.472 6.637-11.544 0-10.178-9.841-16.128-18.999-11.486m66.936 5.469c-4.389 1.908-7.262 6.901-7.266 12.632-.011 12.999 17.244 17.727 24.036 6.586 4.027-6.603 1.385-15.848-5.457-19.095-4.104-1.947-7.044-1.979-11.313-.123"/></svg>