<svg xmlns="http://www.w3.org/2000/svg" width="24" height="24" viewBox="0 0 512 512"><path fill-rule="evenodd" stroke="#000" d="M361.308 100.216 342 119.433v18.161c0 22.476-.249 22.922-8.718 15.601-18.373-15.881-42.312-27.477-69.023-33.434-14.193-3.166-45.325-3.166-59.518 0-31.982 7.133-55.734 20.074-78.305 42.664C104.852 184.027 91.43 208.413 84.839 238c-2.07 9.294-2.335 13.026-2.308 32.5.028 20.275.239 22.88 2.689 33.225 12.335 52.075 51.346 95.121 100.872 111.305 18.13 5.925 27.54 7.354 48.408 7.354 15.859 0 20.698-.366 29.273-2.216 21.898-4.723 38.648-11.652 56.08-23.198 11.82-7.83 28.193-23.549 37.77-36.263 8.355-11.091 18.638-30.944 22.704-43.83 15.833-50.189 5.221-104.568-28.236-144.685-3.07-3.681-5.03-6.909-4.707-7.75.454-1.183 3.826-1.442 18.775-1.442h18.221l18.851-18.75c10.367-10.312 19.125-19.838 19.46-21.169.449-1.78.014-2.902-1.651-4.25-1.98-1.603-4.239-1.831-18.151-1.831H387v-16.443c0-15.859-.079-16.499-2.223-18-1.222-.856-2.658-1.557-3.191-1.557s-9.658 8.647-20.278 19.216m2.942 11.03L352 123.529v20.961l12.537-12.537 12.538-12.537-.288-10.227-.287-10.227-12.25 12.284m-151.75 17.27c-14.791 2.394-26.209 6.137-41 13.442-16.476 8.136-27.446 16.13-40.039 29.177-19.869 20.586-33.024 46.702-37.961 75.365-2.053 11.921-2.025 33.933.06 46.314 9.776 58.065 53.468 103.647 111.94 116.782 11.227 2.522 39.124 3.022 51.669.926 37.903-6.333 73.881-29.362 94.853-60.715 11.2-16.745 17.949-32.612 22.169-52.119 2.931-13.546 3.159-40.582.458-54.123-2.569-12.876-8.054-28.598-13.876-39.774-4.678-8.98-19.975-30.791-21.595-30.791-.389 0-6.497 5.803-13.573 12.895l-12.866 12.895 5.197 6.355c6.673 8.16 15.295 25.717 18.59 37.855 3.207 11.816 4.274 29.034 2.546 41.083-1.488 10.37-6.988 27.237-11.712 35.917-10.797 19.838-27.649 35.591-48.737 45.56-15.848 7.491-23.165 8.949-44.623 8.887-17.234-.05-19.116-.241-27.5-2.797-36.748-11.202-63.466-37.896-73.872-73.807C117.824 246.76 144.223 192.499 194 171.699c22.722-9.495 51.967-10.101 75.556-1.565 9.634 3.486 21.654 10.165 29.772 16.542l5.862 4.606 12.958-12.891 12.959-12.891-5.303-4.927c-14.903-13.844-41.193-26.615-64.077-31.127-11.571-2.281-37.813-2.777-49.227-.93m159.578 10.974L359.5 151.979l10.485.011 10.485.01 11.765-11.734c6.471-6.454 11.765-12.079 11.765-12.5s-4.352-.766-9.672-.766h-9.672l-12.578 12.49m-154.184 35.998c-18.582 3.531-34.774 11.791-48.406 24.696-14.042 13.291-23.243 28.733-27.715 46.515-3.07 12.208-3.032 34.064.08 45.801 2.673 10.083 10.493 26.031 16.928 34.524 12.13 16.008 30.111 28.173 50.286 34.023 10.579 3.067 31.589 3.812 42.895 1.521 38.51-7.803 67.959-36.866 75.608-74.617 2.296-11.329 1.547-33.331-1.49-43.777-3.639-12.52-11.106-26.606-19.141-36.109l-2.059-2.435-13.023 13.023-13.023 13.023 4.05 6.266c6.368 9.852 8.317 16.023 8.871 28.077.596 12.974-.699 19.644-5.779 29.775-17.643 35.189-64.892 42.752-92.482 14.803-15.095-15.291-20.659-34.901-15.559-54.841 5.751-22.487 22.551-38.428 45.579-43.25 15.082-3.157 32.873.833 45.035 10.101l3.049 2.324 12.951-13.038 12.951-13.038-5-4.465c-6.27-5.598-24.463-14.655-35-17.424-10.521-2.764-29.171-3.46-39.606-1.478m1.878 48.794c-23.238 8.137-36.593 31.298-31.667 54.919 6.932 33.238 45.268 48.925 73.603 30.117 12.867-8.54 21.292-24.43 21.292-40.157 0-8.343-4.297-21.028-9.37-27.661-1.47-1.921-2.23-1.302-19.34 15.75-9.796 9.762-18.593 17.75-19.55 17.75-1.979 0-5.74-3.4-5.74-5.189 0-.653 8.156-9.387 18.124-19.409l18.124-18.22-4.374-2.773c-7.826-4.961-13.645-6.651-24.374-7.082-8.591-.345-10.948-.07-16.728 1.955"/></svg>