<svg xmlns="http://www.w3.org/2000/svg" width="24" height="24" viewBox="0 0 24 24"><path fill-rule="evenodd" stroke="#000" d="M242.432 108.362c-6.637 3.469-25.087 12.981-41 21.136-67.303 34.495-86.912 44.656-88.136 45.671-1.868 1.551-1.913 140.105-.046 141.559.688.535 12.05 6.506 25.25 13.267a49995 49995 0 0 1 57.5 29.524c18.425 9.477 39.444 20.225 46.708 23.884l13.208 6.652 14.292-7.157c7.861-3.936 28.917-14.684 46.792-23.883s43.3-22.259 56.5-29.02c13.2-6.762 24.566-12.734 25.257-13.272.992-.773 1.202-15.736 1-71.058l-.257-70.08-5.5-3.09c-3.025-1.699-19.45-10.216-36.5-18.926s-36.85-18.866-44-22.57c-40.042-20.743-56.467-28.996-57.662-28.972-.736.014-6.769 2.865-13.406 6.335m-10.647 13.411c-17.219 8.887-22.422 11.997-21.5 12.849.668.619 28.618 16.93 62.111 36.247l60.895 35.121 27.105-13.92c14.907-7.655 27.024-14.242 26.927-14.637s-9.772-5.631-21.5-11.635c-51.116-26.169-73.47-37.646-90.418-46.425-9.952-5.155-18.727-9.362-19.5-9.349s-11.627 5.3-24.12 11.749m-37.102 18.906c-4.129 2.173-6.456 3.948-5.901 4.503.504.504 28.493 16.846 62.198 36.314l61.28 35.398 6.87-3.46c3.779-1.902 6.853-3.791 6.832-4.197-.03-.593-121.598-71.222-123.828-71.942-.349-.112-3.702 1.41-7.451 3.384m-41.898 21.649c-15.243 7.848-27.985 14.539-28.315 14.869s12.367 7.257 28.215 15.394l50.815 26.092a10684 10684 0 0 0 37.297 19.057l15.297 7.76 24.453-12.486C293.996 226.147 305 220.287 305 219.991c0-.45-121.949-71.056-123.859-71.711-.352-.121-13.113 6.201-28.356 14.048m-33.542 85.773.257 64.1 30 15.445c16.5 8.495 45.075 23.139 63.5 32.544s33.95 17.414 34.5 17.799 1.787.981 2.75 1.324c1.655.59 1.75-2.861 1.744-63.594l-.006-64.219-13.244-6.768a26107 26107 0 0 1-34.244-17.547C137.807 192.953 120.213 184 119.632 184c-.356 0-.531 28.845-.389 64.101M363 198.488l-27.5 14.251.323 21.63.323 21.631h-2.436c-1.339 0-5.709 1.35-9.71 3s-8.563 3-10.138 3H311l-.011-14.25c-.006-7.838-.29-15.941-.632-18.007l-.621-3.757-24.86 12.757-24.86 12.757-.008 64.218c-.008 60.768.086 64.179 1.742 63.5 1.699-.697 39.362-19.977 100.75-51.575l30-15.442.257-64.1c.205-51.001.001-64.077-1-63.982-.691.066-13.632 6.532-28.757 14.369m-40.5 20.823-6 3.189.366 16c.201 8.8.473 16.122.605 16.271.532.606 11.757-4.203 12.134-5.198.223-.59.066-8.358-.349-17.262l-.756-16.189-6 3.189"/></svg>