<svg xmlns="http://www.w3.org/2000/svg" width="24" height="24" viewBox="0 0 24 24"><path fill-rule="evenodd" stroke="#000" d="M380.751 97c-.32.825-.841 3.675-1.158 6.332-1.204 10.084-5.685 15.064-14.56 16.182-2.493.314-5.883.955-7.533 1.426-2.93.836-2.905.858 1.068.958 13.834.347 21.407 7.541 21.426 20.352.009 5.958 1.659 4.349 2.353-2.296.679-6.494 1.717-9.153 4.969-12.722 2.412-2.648 10.332-5.232 16.032-5.232 5.59 0 3.997-.962-3.301-1.993-12.106-1.712-16.441-6.103-17.932-18.166-.431-3.487-1.045-5.666-1.364-4.841M112 151.935c-8.995 2.746-17.146 9.608-21.716 18.281L87.5 175.5l-.266 117.378c-.208 91.812.002 117.701.965 118.862 3.178 3.829 9.648 3.087 11.663-1.337.829-1.82 1.138-33.419 1.138-116.49 0-110.083.065-114.12 1.903-117.703 2.405-4.691 5.614-7.692 10.329-9.662 5.534-2.313 95.062-2.304 103.991.01 14.642 3.794 26.588 14.502 32.997 29.578l2.28 5.364.5 69.646c.479 66.703.581 69.735 2.405 71.75 2.252 2.487 6.268 2.721 9.372.547l2.223-1.556-.017-67.694c-.02-75.42-.028-75.524-6.674-89.064-5.234-10.662-16.997-22.461-27.364-27.447-13.595-6.539-14.877-6.661-69.445-6.581-26.95.039-50.125.414-51.5.834m227.441.484c-1.897 1.387-1.952 4.046-2.441 117.25l-.5 115.831-2.5 4.459c-1.599 2.852-4.274 5.555-7.42 7.5l-4.92 3.041-45.08.284c-28.66.181-47.616-.108-52.043-.792-18.559-2.869-34.863-17.941-38.978-36.033-1.327-5.833-1.559-16.671-1.559-72.796 0-62.594-.094-66.057-1.844-68.219-2.507-3.096-7.805-3.096-10.312 0-1.75 2.162-1.844 5.625-1.844 68.209 0 73.294.134 75.102 6.523 88.347 7.747 16.058 21.516 27.478 39.977 33.155 5.495 1.69 10.247 1.845 56.5 1.845h50.5l6-2.801c7.794-3.638 14.021-9.718 17.616-17.199l2.882-6 .001-117.095c.001-112.17-.076-117.165-1.828-118.75-2.243-2.03-6.132-2.135-8.73-.236"/></svg>