<svg xmlns="http://www.w3.org/2000/svg" width="24" height="24" viewBox="0 0 24 24"><path fill-rule="evenodd" stroke="#000" d="M380.751 97c-.32.825-.841 3.675-1.158 6.332-1.204 10.084-5.685 15.064-14.56 16.182-2.493.314-5.883.955-7.533 1.426-2.93.836-2.905.858 1.068.958 13.834.347 21.407 7.541 21.426 20.352.009 5.958 1.659 4.349 2.353-2.296.679-6.494 1.717-9.153 4.969-12.722 2.412-2.648 10.332-5.232 16.032-5.232 5.59 0 3.997-.962-3.301-1.993-12.106-1.712-16.441-6.103-17.932-18.166-.431-3.487-1.045-5.666-1.364-4.841m-116.158 58.698c-1.05.28-6.934 4.85-13.077 10.156-6.143 5.305-14.285 12.156-18.092 15.224-48.171 38.806-61.262 50.043-70.763 60.74-5.201 5.857-6.441 9.175-4.786 12.808 1.972 4.327 7.028 5.546 29.125 7.024 11.275.754 21.115 1.598 21.867 1.874 1.828.673.221 1.885-21.995 16.591-32.745 21.674-70.976 49.019-72.156 51.609-1.731 3.799.782 7.398 6.279 8.99 3.659 1.059 8.158 1.05 24.984-.051 11.287-.739 20.852-1.062 21.256-.718.768.653-4.022 4.986-41.235 37.308-33.428 29.033-36.78 32.967-32.087 37.66 1.148 1.148 2.943 2.087 3.99 2.087 7.379 0 143.037-53.695 167.597-66.336 10.05-5.173 12.5-7.528 12.5-12.015 0-6.337-7.042-10.608-25.832-15.669-6.688-1.801-8.07-2.484-7-3.462.732-.67 14.607-9.126 30.832-18.79 53.651-31.957 59.571-37.357 50.69-46.238-3.58-3.58-6.055-4.406-20.94-6.985-5.363-.93-9.75-2.12-9.75-2.646s4.613-3.114 10.25-5.752 17-8.52 25.25-13.072c17.087-9.429 44.177-23.738 56-29.581 8.8-4.349 10.745-7.01 8.92-12.204-1.275-3.63-5.707-5.588-17.42-7.698-5.225-.941-22.287-4.394-37.915-7.673-42.457-8.908-72.867-14.148-76.492-13.181m-3.283 14.025c-5.096 2.84-75.091 62.451-87.215 74.279-4.138 4.037-4.294 4.379-2.559 5.648 1.015.742 3.673 1.367 5.905 1.387s13.632.635 25.332 1.366c22.749 1.421 25.227 2.112 25.227 7.029 0 4.678-2.969 7.065-40.5 32.557-32.345 21.969-51.729 36.182-50.72 37.191.532.532 6.565.427 14.773-.257 31.601-2.631 40.811 1.282 30.73 13.059-3.145 3.675-43.384 39.575-55.751 49.74-2.156 1.773-3.642 3.502-3.301 3.843s6.391-1.728 13.445-4.598c7.053-2.869 22.949-9.15 35.324-13.958 39.038-15.165 90-36.8 90-38.208 0-1.1-11.243-4.33-23.5-6.75-8.844-1.746-11.441-2.66-13.25-4.667-2.847-3.158-2.847-5.604 0-8.79 1.238-1.385 14.175-9.439 28.75-17.897 39.628-22.996 57.807-34.35 60.825-37.986 1.52-1.831-.485-2.323-23.61-5.786-17.364-2.601-21.215-4.205-21.215-8.839 0-1.619.788-3.732 1.75-4.697s9.175-5.303 18.25-9.64c22.478-10.744 34.841-17.075 53.921-27.614 8.911-4.922 20-10.66 24.641-12.75s8.438-4.136 8.438-4.547-1.687-1.038-3.75-1.393c-2.062-.356-13.875-2.824-26.25-5.486-61.955-13.324-79.291-15.8-85.69-12.236"/></svg>