<svg xmlns="http://www.w3.org/2000/svg" width="24" height="24" viewBox="0 0 512 512"><path fill-rule="evenodd" stroke="#000" d="M255 126.632c-69.15 5.132-135.298 40.168-165.212 87.507-23.001 36.401-18.632 75.548 11.237 100.673 18.879 15.881 43.85 25.535 80.975 31.305 19.115 2.971 59.06 3.722 78.304 1.473 15.247-1.782 36.147-5.595 47.667-8.695 8.846-2.38 8.879-2.359 12.062 7.946 2.205 7.139 2.558 17.921.919 28.023-.862 5.313-.774 6.758.531 8.75 2.082 3.178 5.331 3.031 10.117-.456 9.326-6.797 17.924-19.259 23.607-34.215 2.956-7.782 3.219-9.443 3.348-21.209l.14-12.766 9.902-8.155c13.904-11.45 35.909-33.913 42.221-43.098 9.954-14.485 13.558-25.306 13.447-40.371-.078-10.43-1.847-17.578-6.772-27.358-16.687-33.136-61.942-59.776-114.544-67.428-10.768-1.567-38.033-2.661-47.949-1.926m1 6.48c-70.138 3.897-141.396 43.923-166.254 93.388-7.323 14.572-10.228 32.912-7.364 46.5 6.563 31.147 34.719 53.013 81.618 63.386 22.264 4.925 34.293 6.057 64 6.027 23.382-.024 29.672-.363 42-2.265 17.605-2.715 38.751-7.451 42.941-9.618 2.16-1.116 3.612-1.304 4.871-.631 2.514 1.346 6.837 9.654 8.655 16.636 1.723 6.615 2.051 23.171.562 28.364-1.514 5.278-.281 5.474 4.423.703 8.99-9.119 17.228-23.913 20.103-36.1 1.852-7.851 1.824-17.251-.061-20.866-.822-1.576-1.494-3.434-1.494-4.13s2.587-3.196 5.75-5.556c9.92-7.402 24.607-20.535 34.559-30.904 20.515-21.373 27.79-35.345 27.841-53.465.049-17.695-7.803-33.413-24.774-49.587-30.689-29.25-82.18-44.948-137.376-41.882"/></svg>