<svg xmlns="http://www.w3.org/2000/svg" width="24" height="24" viewBox="0 0 512 512"><path fill-rule="evenodd" stroke="#000" d="M181.09 114.119c-34.35 3.982-69.667 21.876-85.927 43.537-18.068 24.068-23.057 53.977-13.68 82.001 4.168 12.455 8.064 20.28 20.133 40.435 13.508 22.557 15.172 26.49 16.595 39.222 2.555 22.869-3.194 53.951-15.812 85.492-2.488 6.219-4.378 12.062-4.201 12.985.203 1.055 1.659 1.896 3.916 2.263 1.977.321 33.965.553 71.086.515 55.659-.057 67.782-.31 69.146-1.441 1.45-1.204 1.657-4.224 1.678-24.5.013-12.721.441-24.928.951-27.128 1.677-7.239 2.793-7.584 23.558-7.273l18.254.273 4.357-3.044c7.081-4.949 9.246-9.996 9.693-22.594.352-9.953.528-10.719 2.725-11.895 3.065-1.641 5.393-6.677 5.853-12.667.203-2.64.904-6.15 1.557-7.8 1.095-2.767.845-8.208-.544-11.826-.442-1.153.705-1.767 4.936-2.646 7.57-1.571 11.679-4.586 14.051-10.31 1.84-4.441 1.866-5.034.41-9.587-.939-2.937-6.739-12.19-14.689-23.438L302 226.108v-7.176c0-14.471-4.773-38.792-10.655-54.291-13.929-36.703-57.449-56.645-110.255-50.522m5.91 7.555c-25.288 2.559-51.666 11.989-68.185 24.375-19.995 14.993-32.179 36.851-33.536 60.163-1.246 21.4 3.894 37.054 22.258 67.788 16.751 28.033 18.42 32.572 19.121 52 .459 12.742.158 16.245-3.263 38-.303 1.925-1.191 4.918-1.973 6.651s-1.427 4.433-1.433 6c-.012 3.064-4.088 16.583-8.356 27.718-1.448 3.778-2.633 7.041-2.633 7.25 0 .21 28.575.381 63.5.381H236v-21.318c0-23.72.951-29.353 5.726-33.909 4.644-4.429 7.395-4.916 25.918-4.583l17.201.31 3.084-2.943c4.011-3.828 5.059-7.922 5.065-19.794l.006-9.738 4-2.525c4.096-2.586 4.524-3.681 4.053-10.371-.13-1.855.537-4.809 1.483-6.566 1.654-3.071 1.638-3.381-.408-8.006-1.17-2.646-2.128-5.374-2.128-6.062 0-2.195 2.647-3.562 10.539-5.442 9.312-2.219 13.032-5.213 12.028-9.682-.354-1.579-6.927-11.749-14.606-22.599L294 229.044V221.4c0-14.983-5.068-40.839-10.741-54.801-8.105-19.945-27.129-35.302-51.43-41.514-13.322-3.405-31.336-4.776-44.829-3.411m144.667 172.993c-.367.366-.667 1.681-.667 2.922 0 3.186 6.894 8.795 16.5 13.424 12.807 6.172 18.846 7.424 35.5 7.359 12.383-.048 15.944-.441 24.393-2.693 10.973-2.924 14.607-4.81 14.607-7.58 0-3.856-2.463-4.441-9.228-2.19-22.511 7.492-44.791 6.646-62.714-2.38-3.829-1.928-8.505-4.861-10.392-6.517-3.251-2.855-6.529-3.816-7.999-2.345m-7.627 10.785c-1.852 2.231-.445 4.962 5.852 11.357 6.968 7.078 12.666 11.099 22.203 15.669 8.304 3.98 23.675 7.815 29.439 7.345 3.461-.282 4.005-.664 4.276-3.006.386-3.34-1.353-4.323-9.213-5.207-8.165-.918-19.83-4.977-27.76-9.661C342.525 318.221 330 306.898 330 304.92c0-1.474-4.639-1.06-5.96.532m-2.911 15.702-1.271 6.155 4.649 6.803c12.071 17.668 31.594 29.811 55.899 34.771 10.404 2.123 13.609 1.729 13.579-1.668-.029-3.216-1.635-4.27-8.061-5.29-27.05-4.295-48.878-18.983-59.471-40.018-1.913-3.799-3.607-6.907-3.765-6.907-.159 0-.86 2.769-1.559 6.154"/></svg>