<svg xmlns="http://www.w3.org/2000/svg" width="24" height="24" viewBox="0 0 512 512"><path fill-rule="evenodd" stroke="#000" d="M226.5 92.522c-33.593 5.414-63.662 20.443-88.639 44.303-33.275 31.787-50.874 73.073-50.855 119.303.012 29.947 6.886 56.291 21.244 81.418 24.576 43.011 67.456 73.283 115.418 81.483 15.84 2.708 40.78 2.715 56.563.017 23.456-4.01 48.775-14.636 68.693-28.83 12.058-8.593 28.699-25.234 37.292-37.292 14.194-19.918 24.82-45.237 28.83-68.693 2.698-15.783 2.691-40.723-.017-56.563-8.93-52.234-44.212-98.462-92.529-121.237-11.507-5.423-24.349-9.749-37-12.462-13.217-2.835-45.479-3.626-59-1.447m7 12.167c-16.687 2.162-35.653 8.196-51.348 16.333-40.479 20.989-68.714 57.964-79.27 103.807-2.576 11.184-3.621 38.062-1.965 50.49 4.467 33.506 19.58 64.056 43.603 88.137 21.087 21.138 47.229 35.323 77.48 42.041 9.996 2.22 39.16 3.136 50.186 1.575 33.716-4.771 63.466-19.581 87.386-43.5 23.497-23.497 37.796-51.707 43.088-85.008 1.993-12.542 1.36-41.24-1.16-52.564-9.984-44.868-37.346-81.914-76.36-103.386-15.722-8.653-35.037-15.102-52.507-17.532-7.269-1.011-32.417-1.264-39.133-.393m-71.622 92.564c-10.311 3.602-21.859 13.391-21.874 18.542-.006 2.04 4.688 6.205 6.993 6.205 1.149 0 4.207-1.968 6.796-4.373 7.934-7.37 12.276-9.113 22.707-9.113 10.374 0 14.025 1.459 22.509 8.994 5.453 4.843 7.318 5.352 10.768 2.935 1.573-1.101 2.223-2.574 2.223-5.037 0-4.727-6.647-11.134-16.71-16.107-6.901-3.411-8.41-3.767-17.178-4.049-8.004-.258-10.72.077-16.234 2.003m154.868-1.167C306.45 198.512 292 209.642 292 215.145c0 3.271 3.095 6.855 5.919 6.855 1.056 0 4.543-2.252 7.75-5.003 14.318-12.286 31.884-11.931 45.116.91 4.855 4.712 7.313 5.086 10.76 1.638 3.348-3.347 3.087-5.84-1.098-10.472-10.19-11.279-28.217-16.637-43.701-12.987M176.655 304.829c-3.844 4.248-.359 10.779 10.864 20.355 8.312 7.094 13.587 10.527 22.826 14.856 37.798 17.713 81.703 10.009 111.23-19.518 6.316-6.316 7.425-7.932 7.425-10.819 0-2.017-.741-4.064-1.829-5.048-3.458-3.129-6.337-2.054-13.2 4.931-16.938 17.237-34.226 25.085-57.569 26.13-25.892 1.16-45.283-6.118-63.821-23.953-9.626-9.261-12.635-10.571-15.926-6.934"/></svg>