<svg xmlns="http://www.w3.org/2000/svg" width="24" height="24" viewBox="0 0 24 24"><path fill-rule="evenodd" stroke="#000" d="M380.751 97c-.32.825-.841 3.675-1.158 6.332-1.204 10.084-5.685 15.064-14.56 16.182-2.493.314-5.883.955-7.533 1.426-2.93.836-2.905.858 1.068.958 13.834.347 21.407 7.541 21.426 20.352.009 5.958 1.659 4.349 2.353-2.296.679-6.494 1.717-9.153 4.969-12.722 2.412-2.648 10.332-5.232 16.032-5.232 5.59 0 3.997-.962-3.301-1.993-12.106-1.712-16.441-6.103-17.932-18.166-.431-3.487-1.045-5.666-1.364-4.841m-150.105 37.052c-57.607 6.004-105.893 48.339-120.367 105.532-2.57 10.155-2.763 12.345-2.771 31.416-.006 16.019.388 22.358 1.804 29 11.763 55.193 53.775 97.538 108.271 109.129 9.397 1.999 13.563 2.307 29.917 2.212 17.709-.103 19.792-.316 30.649-3.132 28.223-7.319 49.8-19.831 69.004-40.014 18.5-19.443 31.783-45.69 36.283-71.695 1.977-11.422 2.022-34.129.091-46.03-7.289-44.94-35.556-83.013-77.027-103.744-20.727-10.361-50.43-15.324-75.854-12.674m2.17 12.976c-16.33 1.84-32.676 7.013-47.816 15.134-26.039 13.966-49.146 41.378-58.588 69.505-13.07 38.935-6.043 83.438 18.368 116.333 36.793 49.581 102.999 64.857 158.864 36.656 29.091-14.686 51.68-40.916 62.137-72.156 8.207-24.516 8.224-54.563.046-79.5-16.21-49.428-61.821-84.02-113.827-86.328-6.325-.28-14.958-.12-19.184.356m42.195 77.638c-22.819 16.214-41.634 29.624-41.811 29.801-.368.368 30.038 28.525 30.8 28.522.639-.002 53.204-87.121 52.801-87.511-.165-.161-18.971 12.974-41.79 29.188m-46.36 36.522c-.811 1.272-11.913 19.637-24.669 40.812a38234 38234 0 0 1-25.279 41.927c-1.147 1.885-1.517 3.076-.824 2.648 5.032-3.11 82.682-58.801 82.909-59.463.268-.781-27.989-27.236-29.827-27.924-.458-.172-1.498.728-2.31 2"/></svg>