<svg xmlns="http://www.w3.org/2000/svg" width="24" height="24" viewBox="0 0 24 24"><path fill-rule="evenodd" stroke="#000" d="M380.751 97c-.32.825-.841 3.675-1.158 6.332-1.204 10.084-5.685 15.064-14.56 16.182-2.493.314-5.883.955-7.533 1.426-2.93.836-2.905.858 1.068.958 13.834.347 21.407 7.541 21.426 20.352.009 5.958 1.659 4.349 2.353-2.296.679-6.494 1.717-9.153 4.969-12.722 2.412-2.648 10.332-5.232 16.032-5.232 5.59 0 3.997-.962-3.301-1.993-12.106-1.712-16.441-6.103-17.932-18.166-.431-3.487-1.045-5.666-1.364-4.841M320 177.645l-35.5 29.613-.5-17.711c-.453-16.052-.682-17.845-2.441-19.13-1.068-.779-2.6-1.417-3.404-1.417-2.564 0-14.2 7.061-20.644 12.528l-6.23 5.285-8.39-3.084c-7.772-2.856-9.387-3.089-21.891-3.156-12.334-.067-14.271.18-22.431 2.854-14.426 4.728-29.851 16.652-36.598 28.292-1.731 2.987-3.896 4.604-10.305 7.7-16.016 7.735-30.562 25.758-35.176 43.581-1.838 7.101-2.424 20.612-1.237 28.514.729 4.854.622 5.174-3.354 9.986-9.413 11.391-13.283 23.062-12.723 38.372.462 12.634 2.023 16.656 12.532 32.291l6.792 10.105v7.116c0 5.29-.622 8.586-2.425 12.844-2.399 5.666-2.404 5.751-.5 7.857 1.679 1.858 2.619 2.048 7.363 1.491 2.991-.351 8.616-1.783 12.5-3.182s7.749-2.761 8.589-3.027c1.054-.334 1.828.541 2.5 2.825l.973 3.308 79.673.256c92.236.296 83.479 1.398 82.413-10.371-.886-9.77-2.969-17.442-7.134-26.273-4.6-9.753-8.237-14.56-24.153-31.923-9.699-10.581-14.296-16.458-16.822-21.508-1.913-3.823-3.477-7.564-3.477-8.315 0-.977 1.497-1.376 5.25-1.401 2.887-.02 8.175-1.042 11.75-2.272l6.5-2.236 9.5 6.42c19.92 13.462 29.22 16.1 39.398 11.172 10.788-5.222 21.57-19.434 21.592-28.461.015-5.989-1.041-7.646-26.314-41.279C316.504 243.104 309 232.864 309 232.554s11.981-17.714 26.624-38.676c14.644-20.962 26.85-38.975 27.126-40.029.633-2.421-2.401-5.854-5.155-5.833-1.266.01-16.146 11.737-37.595 29.629m-54.832 11.294c-6.153 5.122-10.748 10.373-15.763 18.018-2.67 4.071-3.442 4.562-8.914 5.67-30.576 6.191-53.896 34.416-67.983 82.283-3.406 11.575-8.508 33.055-8.508 35.822 0 .805 1.823 5.142 4.051 9.638 5.304 10.705 6.79 19.097 5.114 28.876-1.662 9.689-5.012 16.654-11.111 23.103-2.853 3.017-5.054 6.282-5.054 7.498V402h71c66.958 0 70.999-.1 70.985-1.75-.038-4.578-3.413-15.266-6.988-22.136-4.24-8.147-7.829-12.707-23.419-29.761-5.458-5.969-11.652-13.521-13.765-16.781-3.656-5.64-7.813-16.631-7.813-20.657 0-1.193-1.518-2.649-4.177-4.005-12.548-6.402-22.768-22.592-22.811-36.137-.009-2.86.558-4.101 2.439-5.333 4.582-3.002 8.549.453 8.549 7.447 0 9.699 10.546 23.147 20.826 26.557 7.161 2.376 17.994 1.833 24.24-1.216 2.511-1.225 5.354-2.228 6.319-2.228s5.434 2.605 9.934 5.788c13.81 9.771 23.776 15.212 27.86 15.212 6.129 0 15.52-7.57 19.801-15.96 1.956-3.835 1.979-4.219.427-7.22-4.222-8.164-38.265-52.73-46.879-61.369-3.865-3.877-9.953-9.067-13.528-11.534l-6.5-4.485-.275-16.216c-.153-9.048-.683-16.216-1.198-16.216-.508 0-3.594 2.223-6.859 4.939m44.626 10.915L291.087 215.5l4.707 4.212c2.588 2.316 4.972 4.228 5.298 4.25.681.044 28.124-39.09 27.693-39.49-.157-.145-8.703 6.777-18.991 15.382M213 190.656c-6.808.895-16.58 4.344-22.867 8.07-7.012 4.157-17.047 14.225-20.056 20.124-2.217 4.345-3.577 5.618-7.077 6.624-4.633 1.332-15.464 8.342-20.399 13.201-14.152 13.937-19.839 32.013-16.606 52.79l1.299 8.355-5.035 5.84c-8.394 9.735-13.223 21.401-13.247 32.001-.018 7.968 3.072 16.162 9.801 25.987 9.198 13.43 10.69 17.251 10.607 27.167l-.071 8.314 2.576-.589c1.416-.324 5.854-2.223 9.861-4.22 9.913-4.94 17.251-12.828 19.548-21.013 3.276-11.675 1.357-23.523-5.268-32.532-3.711-5.046-3.749-6.508-.564-21.591 11.38-53.899 32.302-92.162 59.026-107.95 6.505-3.843 20.418-9.234 23.83-9.234 1.322 0 5.642-4.874 5.642-6.364 0-.306-3.016-1.487-6.702-2.626-6.819-2.106-17.969-3.186-24.298-2.354"/></svg>