<svg xmlns="http://www.w3.org/2000/svg" width="24" height="24" viewBox="0 0 512 512"><path fill-rule="evenodd" stroke="#000" d="M380.751 97c-.32.825-.841 3.675-1.158 6.332-1.204 10.084-5.685 15.064-14.56 16.182-2.493.314-5.883.955-7.533 1.426-2.93.836-2.905.858 1.068.958 13.834.347 21.407 7.541 21.426 20.352.009 5.958 1.659 4.349 2.353-2.296.679-6.494 1.717-9.153 4.969-12.722 2.412-2.648 10.332-5.232 16.032-5.232 5.59 0 3.997-.962-3.301-1.993-12.106-1.712-16.441-6.103-17.932-18.166-.431-3.487-1.045-5.666-1.364-4.841M153 194.889c-10.636 3.446-18.215 8.096-26.069 15.997-8.118 8.168-12.328 14.777-15.995 25.114-3.301 9.308-3.407 27.435-.218 37.5 7.84 24.745 29.925 42.361 55.434 44.216 7.002.509 7.759.778 8.929 3.17.702 1.438 1.469 7.643 1.704 13.79.479 12.569-.737 20.212-6.352 39.916-3.912 13.725-3.796 16.891.781 21.468 2.517 2.517 3.706 2.94 8.264 2.94 4.762 0 5.941-.471 11.173-4.462 19.467-14.849 33.436-46.178 39.841-89.355 2.296-15.483 3.801-48.853 2.591-57.495-2.118-15.136-7.834-26.624-18.508-37.194-7.874-7.797-17.432-13.384-27.219-15.909-8.606-2.22-27.068-2.057-34.356.304m146.5-.019c-10.347 2.978-18.376 7.91-27 16.584-12.976 13.05-18.025 25.615-17.904 44.546.063 9.705.479 12.645 2.669 18.835 8.719 24.653 29.581 40.893 55.069 42.867 8.97.695 8.876.591 10.671 11.828 1.685 10.548-1.731 31.424-8.626 52.716-1.905 5.881-.689 10.474 3.764 14.221 14.994 12.617 42.23-20.436 53.313-64.698 4.108-16.407 6.395-33.384 7.647-56.769 1-18.675.943-22.681-.431-30.489-4.189-23.808-22.569-44.057-45.316-49.926-8.343-2.152-25.904-2.005-33.856.285M157 206.886c-17.182 5.555-29.283 17.359-34.12 33.283-1.731 5.699-2.027 8.786-1.688 17.62.375 9.799.722 11.375 4.068 18.512 6.173 13.168 18.864 23.909 32.765 27.731 2.461.677 8.75 1.284 13.975 1.349l9.5.119 2.678 5.5c7.8 16.022 7.59 33.58-.758 63.428-1.842 6.587-3.16 12.166-2.928 12.397.232.232 3.055-2.221 6.274-5.452 15.295-15.35 25.981-41.895 31.301-77.755 2.514-16.948 3.666-50.929 1.996-58.881-3.739-17.805-17.838-32.738-35.995-38.125-7.21-2.14-20.003-2.01-27.068.274m146-.004c-12.023 3.88-20.367 9.867-27.084 19.432C269.503 235.445 267 243.499 267 255c0 29.134 21.518 50.261 51.164 50.233l9.663-.009 2.476 5.638c4.788 10.901 5.201 13.095 5.104 27.138-.097 14.104-1.653 23.176-6.933 40.439-1.336 4.367-2.221 8.147-1.968 8.4s3.505-2.66 7.227-6.474c17.258-17.684 28.555-50.249 32.216-92.865 1.471-17.135 1.308-38.946-.339-45.132-4.488-16.855-18.232-30.688-35.542-35.773-7.216-2.119-20.032-1.983-27.068.287"/></svg>