<svg xmlns="http://www.w3.org/2000/svg" width="24" height="24" viewBox="0 0 512 512"><path fill-rule="evenodd" stroke="#000" d="M215.909 60.554c-6.815 2.099-13.141 8.185-16.483 15.856l-2.809 6.447-20.058.321c-22.323.358-23.356.619-30.395 7.658-8.058 8.058-7.6 3.826-8.183 75.664l-.519 64-6.113 14.5c-21.063 49.954-38.582 94.838-39.076 100.112-1.031 11.01 4.94 21.46 15.003 26.256 2.873 1.369 10.961 4.821 17.974 7.67l12.75 5.18v5.713c0 11.339 5.557 20.691 15.362 25.855l5.138 2.706 34 .535 34 .536 27.5 11.214c24.514 9.997 28.152 11.214 33.5 11.209 11.062-.01 19.929-6.096 24.977-17.143l2.584-5.657 18.72-.362c16.376-.318 19.289-.624 23.27-2.449 6.305-2.89 11.06-7.325 13.975-13.032l2.474-4.843.5-63.5.5-63.5 15.866-39c8.727-21.45 18.829-46.2 22.449-55 6.052-14.712 6.586-16.604 6.633-23.5.045-6.503-.344-8.214-2.923-12.87-1.635-2.954-4.442-6.491-6.237-7.859s-10.581-5.516-19.525-9.216l-16.263-6.726-.62-7.54c-1.023-12.442-7.514-21.525-18.196-25.463-2.17-.8-13.26-1.198-34.831-1.25L289.207 83l-27.063-10.942c-14.884-6.018-28.768-11.415-30.853-11.994-5.005-1.39-9.773-1.238-15.382.49m1.061 10.696c-4.29 2.167-8.97 7.592-8.97 10.398C208 82.75 212.926 83 234.667 83c14.666 0 26.479-.176 26.25-.391C259.238 81.032 227.142 69 224.616 69c-1.756 0-5.196 1.013-7.646 2.25m-60.633 24.264a16.2 16.2 0 0 0-6.25 6.807c-2.086 4.309-2.087 4.357-2.087 148.283v143.972l2.25 4.454c1.238 2.45 3.789 5.477 5.669 6.726l3.42 2.273 97.158-.265 97.159-.264 3.583-2.733c7.302-5.57 6.845 5.325 6.537-155.767l-.276-144.5-2.201-3.538c-1.21-1.946-3.971-4.534-6.136-5.75L351.228 93l-95.364.009-95.364.01-4.163 2.495M374 186.753c0 32.219.178 58.393.395 58.164.349-.368 10.117-24.393 29.505-72.574 6.353-15.787 7.019-19.259 4.723-24.625-2.34-5.469-6.614-8.345-20.873-14.047L374 128.172v58.581M120.132 298.628c-10.191 25.156-17.571 44.762-17.86 47.446-.588 5.462 2.158 11.705 6.455 14.672 2.905 2.007 28.382 12.479 28.957 11.903.183-.182.216-26.558.074-58.612l-.258-58.28-17.368 42.871M267.5 425.591c14.209 5.811 16.592 6.498 21.291 6.14 3.201-.243 6.362-1.195 8-2.409 2.739-2.028 7.209-7.901 7.209-9.47 0-.469-11.812-.841-26.25-.828l-26.25.024 16 6.543"/></svg>