<svg xmlns="http://www.w3.org/2000/svg" width="24" height="24" viewBox="0 0 24 24"><path fill-rule="evenodd" stroke="#000" d="M240.346 85.93c-5.074 2.304-10.593 8.054-18.927 19.715-27.061 37.871-34.637 68.951-24.329 99.809 1.662 4.975 8.149 18.99 14.416 31.144 16.297 31.606 19.667 41.057 22.971 64.402 1.554 10.975 1.958 29.138.523 23.5-.42-1.65-.817-5.304-.882-8.119-.325-14.083-6.868-37.653-14.262-51.381-17.913-33.255-51.623-55.045-85.064-54.985-30.75.055-49.945 18.694-51.475 49.985-.669 13.686 1.188 22.565 7.317 34.978 8.663 17.547 25.54 31.079 44.95 36.043 11.558 2.956 13.61 1.547 10.885-7.474-5.276-17.471-3.322-30.159 5.673-36.82 13.287-9.839 41.657 4.457 52.136 26.273 1.981 4.125 3.877 8.902 4.212 10.615.554 2.831.344 3.168-2.301 3.697-7.278 1.456-12.161 9.584-10.144 16.887 1.124 4.073 6.963 9.801 9.99 9.801 2.47 0 2.468 1.095-.014 5.959l-1.979 3.88-4.193-2.026c-5.066-2.448-13.856-2.729-18.849-.603-4.763 2.028-10.66 8.332-12.637 13.51-2.387 6.249-1.462 16.73 1.997 22.632 5.379 9.179 14.974 14.241 25.488 13.448 15.99-1.206 26.397-14.305 33.211-41.8 3.912-15.784 3.824-15.524 4.89-14.417 1.347 1.397-1.357 14.897-6.686 33.391-3.944 13.685-4.758 17.901-4.732 24.526.026 7.018.424 8.762 3.242 14.207 6.475 12.512 13.21 17.506 23.74 17.605 10.838.102 17.562-4.574 23.505-16.347 6.35-12.579 6.245-15.531-1.503-42.465-4.327-15.04-7.314-30.034-6.205-31.143.326-.326.859.698 1.184 2.275 3.581 17.361 8.676 32.863 12.772 38.867 3.584 5.252 9.108 10.603 13.234 12.818 5.729 3.077 18.293 3.055 24.128-.043C324.985 403.839 332 392.762 332 384c0-8.484-5.936-18.396-13.253-22.129-4.975-2.538-13.702-2.752-19.162-.471-5.191 2.169-5.266 2.146-7.565-2.36-2.497-4.894-2.496-5.04.03-5.04 6.03 0 11.94-6.62 11.946-13.382.007-6.922-6.335-13.618-12.897-13.618-1.155 0-2.094-.113-2.088-.25.07-1.631 3.355-10.537 5.292-14.349 5.795-11.406 17.645-22.294 28.933-26.583 6.939-2.636 16.478-2.678 21.487-.093 9.556 4.931 12.425 16.757 8.27 34.088-2.454 10.235-2.458 10.868-.089 12.136 2.504 1.34 14.861-1.78 23.636-5.968 27.153-12.959 43.381-44.483 38.071-73.953-4.824-26.774-23.408-41.963-51.403-42.013-46.991-.084-89.421 40.978-97.633 94.485-.76 4.95-1.425 7.594-1.478 5.875-.172-5.554 4.006-27.51 6.949-36.517 3.05-9.331 8.55-21.15 19.865-42.683 12.997-24.735 16.749-38.067 15.797-56.129-1.136-21.55-9.689-42.638-27.701-68.296-8.621-12.281-16.361-19.991-21.623-21.539-5.879-1.73-12.236-1.461-17.038.719m2.012 7.993c-6.516 3.974-23.168 27.492-30.855 43.577-11.547 24.165-13.755 44.979-6.929 65.315 2.557 7.619 8.86 20.841 18.825 39.495 7.193 13.463 11.977 25.264 15.07 37.169 3.027 11.65 5.531 29.791 5.531 40.072V327h10.813l.673-9.75c2.264-32.842 7.496-50.403 24.504-82.25 15.748-29.486 18.544-38.059 18.429-56.5-.097-15.421-2.45-24.727-10.368-41-8.727-17.936-25.169-40.904-31.397-43.86-4.602-2.184-10.44-2.068-14.296.283M121.5 219.327c-19.138 4.881-30.527 21.369-30.485 44.133.045 24.478 12.968 44.788 35.432 55.685 8.682 4.212 12.169 4.904 11.136 2.21-.347-.904-1.078-4.796-1.624-8.647-2.276-16.043 3.918-29.67 15.894-34.967 5.97-2.641 16.861-2.562 24.657.178 18.36 6.453 35.488 25.309 39.574 43.565l1.234 5.516h9.31l-.345-6.25c-2.112-38.308-18.176-69.342-45.497-87.895-7.487-5.085-18.562-10.321-26.286-12.429-7.871-2.148-26.461-2.767-33-1.099m226.986.082c-27.031 6.152-51.015 25.656-64.397 52.368-6.78 13.532-12.089 35.536-12.089 50.101V327h4.481c4.074 0 4.536-.25 5.09-2.75 3.539-15.985 13.516-30.504 27.215-39.605 28.527-18.951 56.208-6.204 53.862 24.803-.335 4.429-.908 9.355-1.273 10.947-.636 2.775-.544 2.867 2.231 2.225 1.592-.368 6.269-2.343 10.394-4.389 14.333-7.11 26.555-21.892 31.293-37.847 7.429-25.014-2.919-51.708-23.046-59.455-7.275-2.799-24.693-3.584-33.761-1.52M263.3 322c0 3.025.187 4.262.416 2.75s.229-3.988 0-5.5-.416-.275-.416 2.75M205 337c-2.407 2.407-2.501 3.84-.443 6.777l1.556 2.223h43.909c42.387 0 43.943-.067 44.943-1.934 1.543-2.884 1.257-5.555-.794-7.411-1.641-1.486-6.197-1.655-44.5-1.655-41.338 0-42.733.062-44.671 2m11.361 18.75c-2.597 7.883-9.518 18.25-12.185 18.25-.563 0-2.339-1.107-3.947-2.461-6.146-5.171-15.432-5.079-20.472.205-11.625 12.185-1.344 32.465 15.74 31.048 12.203-1.012 19.789-11.563 26.007-36.17 1.373-5.433 2.496-10.496 2.496-11.25 0-2.157-6.917-1.814-7.639.378m26.121 1.956c-1.878 11.388-4.007 20.611-7.616 32.991-5.731 19.66-5.938 23.318-1.82 32.252 3.663 7.947 7.076 11.408 12.999 13.183 8.078 2.42 14.97-1.863 20.46-12.715 4.107-8.117 3.826-13.917-1.547-31.917-2.299-7.7-5.159-19.175-6.357-25.5l-2.178-11.5-6.658-.294-6.658-.295-.625 3.795m32.82 1.044c.319 2.613 1.747 8.749 3.174 13.636 4.827 16.535 10.278 25.234 18.015 28.749 17.122 7.778 34.104-11.005 24.328-26.909-4.507-7.333-13.841-8.634-22.205-3.094l-4.729 3.132-3.019-2.882c-1.66-1.585-4.591-6.144-6.512-10.132-3.212-6.667-3.741-7.25-6.563-7.25h-3.07l.581 4.75"/></svg>