<svg xmlns="http://www.w3.org/2000/svg" width="24" height="24" viewBox="0 0 24 24"><path fill-rule="evenodd" stroke="#000" d="M380.751 97c-.32.825-.841 3.675-1.158 6.332-1.204 10.084-5.685 15.064-14.56 16.182-2.493.314-5.883.955-7.533 1.426-2.93.836-2.905.858 1.068.958 13.834.347 21.407 7.541 21.426 20.352.009 5.958 1.659 4.349 2.353-2.296.679-6.494 1.717-9.153 4.969-12.722 2.412-2.648 10.332-5.232 16.032-5.232 5.59 0 3.997-.962-3.301-1.993-12.106-1.712-16.441-6.103-17.932-18.166-.431-3.487-1.045-5.666-1.364-4.841M248.5 170.431c-18.145 3.116-27.881 8.24-48.5 25.523-16.083 13.482-20.524 16.716-27.556 20.073-16.181 7.722-41.607 8.547-57.216 1.857-3.712-1.592-4.354-1.655-3.866-.384.322.839.879 4.398 1.239 7.91s.951 6.866 1.315 7.454c2.7 4.369 34.638 6.218 48.46 2.804 16.088-3.973 26.508-10.062 46.9-27.409 7.027-5.978 15.202-12.338 18.166-14.134 20.412-12.372 51.814-12.635 72.076-.605 3.311 1.966 10.061 6.972 15 11.124 18.543 15.589 25.184 20.493 32.973 24.349 10.411 5.154 21.758 8.001 33.009 8.282l9 .225.323-3.956c.177-2.176.053-5.394-.277-7.151-.593-3.161-.677-3.203-7.823-3.877-21.005-1.98-29.518-6.061-51.1-24.495-18.928-16.167-30.248-22.844-44.822-26.437-9.292-2.291-27.412-2.851-37.301-1.153m-3.746 69.603c-15.659 2.636-29.524 10.088-47.984 25.789-20.469 17.41-27.936 21.833-41.864 24.794-10.125 2.153-28.889 1.413-37.906-1.495-3.575-1.153-6.838-2.102-7.25-2.109s-.75 3.528-.75 7.855v7.868l6.14 1.723c14.233 3.994 35.386 3.774 49.36-.512 10.851-3.328 21.308-9.266 32.631-18.528a7801 7801 0 0 1 18.177-14.82c15.046-12.212 26.314-16.071 46.692-15.989 11.84.047 14.484.38 21.5 2.705 10.681 3.541 18.057 8.191 32.254 20.336 24.937 21.332 36.231 26.978 58.662 29.328 4.904.514 9.232.738 9.619.5 1.154-.714 2.065-8.43 1.408-11.932l-.612-3.259-8.665-.64c-18.104-1.337-28.022-6.384-50.166-25.527-17.71-15.31-30.299-22.267-46.208-25.537-8.151-1.675-26.63-1.965-35.038-.55M241 309.541c-19.313 3.062-30.689 9.226-53.656 29.074-17.784 15.369-27.845 20.422-45.008 22.603-10.502 1.335-23.758.057-32.96-3.177l-5.376-1.89v7.353c0 5.012.451 7.804 1.417 8.77 2.633 2.633 13.542 4.228 28.583 4.179 17.243-.056 24.296-1.562 37.5-8.007 8.806-4.299 13.483-7.715 32.776-23.946 18.332-15.421 28.205-19.603 47.904-20.29 22.405-.781 35.042 3.824 53.657 19.555 30.345 25.642 41.794 31.403 65.413 32.914l9.75.623V362l-4.75-.035c-6.806-.05-18.865-2.399-25.134-4.897-7.904-3.148-17.001-9.459-31.508-21.857-19.491-16.656-31.809-22.933-50.55-25.758-11.408-1.72-16.757-1.703-28.058.088"/></svg>